<svg width="367" height="46" viewBox="0 0 367 46" fill="none" xmlns="http://www.w3.org/2000/svg">
<path d="M0.264 35H8.04V23.384H20.808V17H8.04V7.928H20.808V1.4H0.264V35ZM29.6888 9.848C32.3768 9.848 34.2488 7.832 34.2488 5.336C34.2488 2.888 32.3768 0.823999 29.6888 0.823999C27.0488 0.823999 25.1288 2.888 25.1288 5.336C25.1288 7.832 27.0488 9.848 29.6888 9.848ZM25.9928 35H33.3368V11.864H25.9928V35ZM39.399 35H46.743V22.904C46.743 19.352 48.279 17.432 51.207 17.432C54.183 17.432 55.287 19.208 55.287 23.096V35H62.679V20.696C62.679 14.408 59.847 11.24 54.231 11.24C50.727 11.24 48.087 12.632 46.743 15.224V11.864H39.399V35ZM85.0673 1.4V13.208H85.1153V15.176C83.8673 12.824 81.2273 11.24 77.8672 11.24C71.1473 11.24 66.8753 16.52 66.8753 23.432C66.8753 30.392 70.8593 35.624 77.7713 35.624C80.9873 35.624 83.8673 34.04 85.1153 31.736V35H92.4113V1.4H85.0673ZM79.8833 29.528C76.4753 29.528 74.3633 26.936 74.3633 23.432C74.3633 19.928 76.4753 17.384 79.8833 17.384C83.5313 17.384 85.4033 20.12 85.4033 23.432C85.4033 26.792 83.5313 29.528 79.8833 29.528ZM119.396 35.624C122.612 35.624 125.492 34.04 126.74 31.736V35H134.036V11.864H126.74V15.176C125.492 12.824 122.852 11.24 119.492 11.24C112.772 11.24 108.5 16.52 108.5 23.432C108.5 30.392 112.484 35.624 119.396 35.624ZM121.508 29.528C118.1 29.528 115.988 26.936 115.988 23.432C115.988 19.928 118.1 17.384 121.508 17.384C125.156 17.384 127.028 20.12 127.028 23.432C127.028 26.792 125.156 29.528 121.508 29.528ZM257.76 22.232C257.76 15.704 252.864 11.192 245.664 11.192C238.128 11.192 233.184 15.848 233.184 23.432C233.184 31.16 238.032 35.72 245.904 35.72C252.048 35.72 256.704 32.6 257.424 28.04H250.224C249.6 29.48 248.16 30.2 245.904 30.2C242.64 30.2 240.624 28.472 240.48 25.448H257.568C257.712 24.104 257.76 23.48 257.76 22.232ZM240.48 20.888C240.528 18.056 242.448 16.088 245.616 16.088C248.736 16.088 250.464 17.816 250.512 20.888H240.48ZM271.74 35.624C274.956 35.624 277.836 34.04 279.084 31.736V35H286.38V11.864H279.084V15.176C277.836 12.824 275.196 11.24 271.836 11.24C265.116 11.24 260.844 16.52 260.844 23.432C260.844 30.392 264.828 35.624 271.74 35.624ZM273.852 29.528C270.444 29.528 268.332 26.936 268.332 23.432C268.332 19.928 270.444 17.384 273.852 17.384C277.5 17.384 279.372 20.12 279.372 23.432C279.372 26.792 277.5 29.528 273.852 29.528ZM301.741 35.72C308.077 35.72 311.869 32.504 311.869 27.752C311.869 24.44 309.565 22.28 306.013 21.32L300.541 19.832C299.293 19.496 298.573 18.824 298.573 17.768C298.573 16.616 299.629 15.848 301.213 15.848C303.181 15.848 304.381 16.76 304.381 18.392H311.629C311.629 14.024 308.077 11.192 301.309 11.192C295.213 11.192 291.421 14.216 291.421 18.536C291.421 21.848 293.389 24.248 297.229 25.208L302.893 26.648C304.141 26.936 304.573 27.704 304.573 28.616C304.573 29.96 303.469 30.776 301.885 30.776C299.629 30.776 298.093 29.624 298.093 28.04H290.797C290.797 32.408 294.973 35.72 301.741 35.72ZM320.126 9.848C322.814 9.848 324.686 7.832 324.686 5.336C324.686 2.888 322.814 0.823999 320.126 0.823999C317.486 0.823999 315.566 2.888 315.566 5.336C315.566 7.832 317.486 9.848 320.126 9.848ZM316.43 35H323.774V11.864H316.43V35ZM329.837 35H337.181V1.4H329.837V35ZM358.891 11.864V23.336C358.891 26.888 357.403 29.192 354.427 29.192C351.355 29.192 350.347 27.176 350.347 24.2V11.864H343.003V25.304C343.003 31.064 345.643 35 351.547 35C355.051 35 357.595 33.608 358.891 31.16V34.76C358.891 38.36 357.115 39.944 354.427 39.944C351.643 39.944 350.539 38.792 350.395 36.824H343.003C343.051 39.32 344.203 41.48 345.883 42.92C347.803 44.504 350.491 45.32 354.427 45.32C358.315 45.32 360.859 44.408 362.923 42.632C364.891 40.856 366.235 38.024 366.235 34.28V11.864H358.891Z" fill="#3F403F"/>
<path d="M155.597 9.848C158.285 9.848 160.157 7.832 160.157 5.336C160.157 2.888 158.285 0.823999 155.597 0.823999C152.957 0.823999 151.037 2.888 151.037 5.336C151.037 7.832 152.957 9.848 155.597 9.848ZM151.757 44.888C156.557 44.888 159.245 42.488 159.245 37.64V11.864H151.901V36.728C151.901 38.264 151.277 38.936 150.029 38.936C149.357 38.936 148.877 38.888 148.253 38.744V44.408C149.261 44.744 150.173 44.888 151.757 44.888ZM176.345 35.72C184.265 35.72 189.161 30.488 189.161 23.432C189.161 16.376 184.265 11.192 176.345 11.192C168.377 11.192 163.481 16.376 163.481 23.432C163.481 30.488 168.377 35.72 176.345 35.72ZM176.345 29.48C172.841 29.48 170.825 26.936 170.825 23.432C170.825 19.928 172.841 17.384 176.345 17.384C179.801 17.384 181.865 19.928 181.865 23.432C181.865 26.936 179.801 29.48 176.345 29.48ZM208.263 11.24C204.807 11.24 201.927 12.968 200.727 15.176V1.352H193.383V35H200.727V31.736C201.879 33.896 204.663 35.624 208.071 35.624C214.455 35.624 218.919 30.68 218.919 23.432C218.919 16.136 214.599 11.24 208.263 11.24ZM205.959 29.528C202.695 29.528 200.391 27.08 200.391 23.432C200.391 19.832 202.647 17.384 205.959 17.384C209.175 17.384 211.431 19.88 211.431 23.432C211.431 27.032 209.175 29.528 205.959 29.528Z" fill="#06942A"/>
</svg>
